<svg width="500" height="500" viewBox="0 0 500 500" fill="none" xmlns="http://www.w3.org/2000/svg">
<path d="M102 197.5C102 115.486 168.486 49 250.5 49C332.514 49 399 115.486 399 197.5V301.5C399 383.514 332.514 450 250.5 450C168.486 450 102 383.514 102 301.5V197.5Z" fill="#4F53F5"/>
<path d="M160 231C160 219.954 168.954 211 180 211C191.046 211 200 219.954 200 231V320C200 331.046 191.046 340 180 340C168.954 340 160 331.046 160 320V231Z" fill="white"/>
<path d="M231 124C231 112.954 239.954 104 251 104C262.046 104 271 112.954 271 124V375C271 386.046 262.046 395 251 395C239.954 395 231 386.046 231 375V124Z" fill="white"/>
<path d="M302 181C302 169.954 310.954 161 322 161C333.046 161 342 169.954 342 181V270C342 281.046 333.046 290 322 290C310.954 290 302 281.046 302 270V181Z" fill="white"/>
</svg>
